Exact Audio Copy V0.99 prebeta 1 from 25. May 2007

Отчёт EAC об извлечении, выполненном 10. марта 2010, 12:34

Unknown Artist / Unknown Title

Дисковод: _NEC    DVD_RW ND-4571A   Adapter: 0  ID: 0

Режим чтения                 : Достоверность
Использование точного потока : Да
Отключение кэша аудио        : Нет
Использование указателей C2  : Да

Комбинированное смещение чтения/записи        : 0
Способность читать области Lead-in и Lead-out : Нет
Заполнение пропущенных сэмплов тишиной        : Да
Удаление блоков с тишиной в начале и конце    : Нет
Интерфейс                                     : Встроенный Win32-интерфейс для Win NT/2000
Обработка зазоров                             : Не обнаружено, добавлено к предыдущему треку

Выходной формат : Внутренние WAV-операции
Формат сэмплов  : 44.100 Гц; 16 бит; стерео


TOC извлечённого CD

     Трек |   Старт  | Длительность | Начальный сектор | Конечный сектор 
    ---------------------------------------------------------------------
       1  |  0:00.00 |    6:54.17   |           0      |      31066      
       2  |  6:54.17 |    5:33.72   |       31067      |      56113      
       3  | 12:28.14 |    3:46.71   |       56114      |      73134      
       4  | 16:15.10 |    6:46.27   |       73135      |     103611      
       5  | 23:01.37 |    6:05.59   |      103612      |     131045      
       6  | 29:07.21 |    6:06.74   |      131046      |     158569      
       7  | 35:14.20 |    4:10.03   |      158570      |     177322      
       8  | 39:24.23 |    4:15.52   |      177323      |     196499      
       9  | 43:40.00 |    7:47.55   |      196500      |     231579      
      10  | 51:27.55 |    5:41.56   |      231580      |     257210      
      11  | 57:09.36 |    7:47.53   |      257211      |     292288      
      12  | 64:57.14 |   10:59.02   |      292289      |     341715      


Трек  1

     Имя файла C:\Users\BeatRokazZ\Desktop\[upload]\Freeland [2010] Cope™ Remixed [MAPACDA010]\Disc 1\Track01.wav

     Пиковый уровень 99.9 %
     Качество трека 100.0 %
     CRC копии 37374B7A
     Копирование... OK

Трек  2

     Имя файла C:\Users\BeatRokazZ\Desktop\[upload]\Freeland [2010] Cope™ Remixed [MAPACDA010]\Disc 1\Track02.wav

     Пиковый уровень 99.9 %
     Качество трека 100.0 %
     CRC копии D7016D6A
     Копирование... OK

Трек  3

     Имя файла C:\Users\BeatRokazZ\Desktop\[upload]\Freeland [2010] Cope™ Remixed [MAPACDA010]\Disc 1\Track03.wav

     Пиковый уровень 99.9 %
     Качество трека 99.9 %
     CRC копии 522AB415
     Копирование... OK

Трек  4

     Имя файла C:\Users\BeatRokazZ\Desktop\[upload]\Freeland [2010] Cope™ Remixed [MAPACDA010]\Disc 1\Track04.wav

     Пиковый уровень 99.9 %
     Качество трека 100.0 %
     CRC копии 56E839AA
     Копирование... OK

Трек  5

     Имя файла C:\Users\BeatRokazZ\Desktop\[upload]\Freeland [2010] Cope™ Remixed [MAPACDA010]\Disc 1\Track05.wav

     Пиковый уровень 99.9 %
     Качество трека 100.0 %
     CRC копии 5BB3F2A7
     Копирование... OK

Трек  6

     Имя файла C:\Users\BeatRokazZ\Desktop\[upload]\Freeland [2010] Cope™ Remixed [MAPACDA010]\Disc 1\Track06.wav

     Пиковый уровень 99.9 %
     Качество трека 100.0 %
     CRC копии C3D0197E
     Копирование... OK

Трек  7

     Имя файла C:\Users\BeatRokazZ\Desktop\[upload]\Freeland [2010] Cope™ Remixed [MAPACDA010]\Disc 1\Track07.wav

     Пиковый уровень 99.9 %
     Качество трека 100.0 %
     CRC копии F9D68CEA
     Копирование... OK

Трек  8

     Имя файла C:\Users\BeatRokazZ\Desktop\[upload]\Freeland [2010] Cope™ Remixed [MAPACDA010]\Disc 1\Track08.wav

     Пиковый уровень 99.9 %
     Качество трека 100.0 %
     CRC копии CD24B722
     Копирование... OK

Трек  9

     Имя файла C:\Users\BeatRokazZ\Desktop\[upload]\Freeland [2010] Cope™ Remixed [MAPACDA010]\Disc 1\Track09.wav

     Пиковый уровень 99.9 %
     Качество трека 100.0 %
     CRC копии DC1D7CA3
     Копирование... OK

Трек 10

     Имя файла C:\Users\BeatRokazZ\Desktop\[upload]\Freeland [2010] Cope™ Remixed [MAPACDA010]\Disc 1\Track10.wav

     Пиковый уровень 99.9 %
     Качество трека 100.0 %
     CRC копии E736E801
     Копирование... OK

Трек 11

     Имя файла C:\Users\BeatRokazZ\Desktop\[upload]\Freeland [2010] Cope™ Remixed [MAPACDA010]\Disc 1\Track11.wav

     Пиковый уровень 99.9 %
     Качество трека 100.0 %
     CRC копии DEDA10BB
     Копирование... OK

Трек 12

     Имя файла C:\Users\BeatRokazZ\Desktop\[upload]\Freeland [2010] Cope™ Remixed [MAPACDA010]\Disc 1\Track12.wav

     Пиковый уровень 99.9 %
     Качество трека 100.0 %
     CRC копии 8E4C6F91
     Копирование... OK

Ошибок не произошло

Конец отчёта
